<svg width="64" height="75" viewBox="0 0 64 75" fill="none" xmlns="http://www.w3.org/2000/svg">
<path d="M53.9304 53.5315C49.0094 52.0304 40.3651 50.8947 40.3651 35.2483H32.6595H31.3408H23.6353C23.6353 50.8947 14.9909 52.0304 10.0699 53.5315C10.0699 64.1739 28.2154 64.501 31.3408 65.493V65.8383C31.3408 65.8383 31.5839 65.796 32.0002 65.6855C32.4164 65.796 32.6595 65.8383 32.6595 65.8383V65.493C35.7849 64.501 53.9304 64.1739 53.9304 53.5315Z" fill="#F3D8B6"/>
<path d="M40.365 35.2483H32.6594H31.9124V65.7082C31.9414 65.7008 31.9693 65.6938 32.0001 65.6855C32.4164 65.796 32.6594 65.8383 32.6594 65.8383V65.4927C35.7849 64.501 53.9303 64.1737 53.9303 53.5315C49.0094 52.0304 40.365 50.8947 40.365 35.2483Z" fill="#EEC8A2"/>
<path d="M50.7231 26.1941C51.6096 24.1999 51.2194 22.2251 49.8514 21.7834C48.4834 21.3417 46.6558 22.6002 45.7692 24.5944C44.8826 26.5887 45.2729 28.5634 46.6409 29.0052C48.0088 29.4469 49.8365 28.1884 50.7231 26.1941Z" fill="#EDCEAE"/>
<path d="M12.9896 26.1937C13.8762 28.188 15.7038 29.4465 17.0718 29.0048C18.4398 28.563 18.83 26.5883 17.9435 24.594C17.0569 22.5998 15.2292 21.3413 13.8613 21.783C12.4933 22.2247 12.103 24.1995 12.9896 26.1937Z" fill="#F3DBC4"/>
<path d="M32.0007 40.606C24.7633 40.606 19.2391 35.4118 16.7637 31.5166C14.2884 27.6214 12.5754 13.6672 17.9078 7.49945C23.1296 1.4595 32.0007 4.39039 32.0007 4.39039C32.0007 4.39039 40.8712 1.4595 46.0932 7.49945C51.4252 13.6672 49.7116 27.6214 47.236 31.5166C44.7601 35.4118 39.2367 40.606 32.0007 40.606Z" fill="#F3DBC4"/>
<path d="M46.0932 7.49978C40.8709 1.4596 32.0007 4.39072 32.0007 4.39072C32.0007 4.39072 31.9696 4.38061 31.9124 4.36308V40.6043C31.9419 40.6046 31.9709 40.6064 32.0007 40.6064C39.2367 40.6064 44.7601 35.4121 47.2363 31.5169C49.7117 27.6217 51.4254 13.6676 46.0932 7.49978Z" fill="#EDCEAE"/>
<path d="M63.6297 65.8598V74.9998H0.370605V65.8598C0.370605 59.0227 4.95151 53.0616 11.0749 49.9273C12.6679 49.1093 16.2655 48.258 18.1514 47.8612C19.7208 47.5269 32.2387 52.9679 32.2387 52.9679C32.2387 52.9679 45.0701 47.7514 46.6394 48.0859C48.5254 48.4827 51.3324 49.1091 52.9252 49.9273C59.0488 53.0616 63.6297 59.0224 63.6297 65.8598Z" fill="#545465"/>
<path d="M52.9254 49.9272C51.3324 49.1091 48.5256 48.4827 46.6397 48.0857C45.0704 47.7514 32.239 52.9677 32.239 52.9677C32.239 52.9677 32.1225 52.9171 31.9124 52.8268V74.9996H63.6297V65.8596C63.6297 59.0227 59.0488 53.0616 52.9254 49.9272Z" fill="#494857"/>
<path d="M37.712 54.0056L32.0002 52.4702L26.2883 54.0056L30.0618 56.4753L27.6945 74.9998H36.3059L33.9386 56.4753L37.712 54.0056Z" fill="#D7734A"/>
<path d="M37.712 54.0056L32.0001 52.4702L31.9124 52.4938V74.9998H36.3058L33.9385 56.4753L37.712 54.0056Z" fill="#D35D3B"/>
<path d="M44.6979 47.0125L32.0001 52.2791L19.3024 47.0125C16.2708 48.2482 22.043 55.6481 23.2127 55.2879C26.1027 54.3982 32.0001 52.9672 32.0001 52.9672C32.0001 52.9672 37.8976 54.3982 40.7876 55.2879C41.9573 55.6481 47.7295 48.2482 44.6979 47.0125Z" fill="white"/>
<path d="M44.6979 47.0125L32.0001 52.2791L31.9124 52.2427V52.9888C31.968 52.9751 32.0001 52.9675 32.0001 52.9675C32.0001 52.9675 37.8976 54.3984 40.7876 55.2881C41.9573 55.6481 47.7295 48.2482 44.6979 47.0125Z" fill="#DEDDE0"/>
<path d="M36.2621 36.1261L31.925 35.2483L27.7385 36.1261L28.34 40.7412C29.4733 41.1348 30.6984 41.3682 32.0007 41.3682C33.3024 41.3682 34.5274 41.1348 35.6605 40.7412L36.2621 36.1261Z" fill="#E1A98C"/>
<path d="M31.925 35.2483L31.9124 35.251V41.3664C31.9419 41.3667 31.9709 41.3684 32.0004 41.3684C33.3022 41.3684 34.5272 41.135 35.6602 40.7414L36.2618 36.1261L31.925 35.2483Z" fill="#D2987B"/>
<path d="M46.9376 5.68884C46.3684 5.70682 43.6998 -1.34417 36.5821 0.228558C31.6954 1.30835 31.0785 1.89542 29.1691 2.35466C21.4161 0.329437 14.0008 5.60616 14.276 10.5526C14.7397 18.8813 13.0164 18.7544 14.1982 21.6637C15.38 24.573 16.43 26.9227 16.43 26.9227C16.43 26.9227 16.6926 27.7237 17.2177 23.136C17.7428 18.5484 15.9774 16.0859 20.1536 16.0859C33.981 16.0859 14.9609 20.663 23.8316 20.663C32.6341 20.663 39.4387 14.5112 43.582 14.0638C47.725 13.6163 45.9928 18.5484 46.5179 23.136C47.043 27.7237 47.3056 26.9227 47.3056 26.9227C47.3056 26.9227 49.6571 24.7406 49.5374 21.6637C49.403 18.1916 51.2167 5.55359 46.9376 5.68884Z" fill="#E1A98C"/>
<path d="M46.9376 5.68909C46.3684 5.70706 43.6998 -1.34393 36.5821 0.228802C34.2601 0.741961 32.903 1.14346 31.9124 1.47328V19.0613C36.8576 17.2057 40.8145 14.3627 43.5822 14.0639C47.7253 13.6163 45.993 18.5484 46.5182 23.136C47.0433 27.7237 47.3059 26.9227 47.3059 26.9227C47.3059 26.9227 49.6573 24.7407 49.5377 21.6637C49.403 18.1916 51.2167 5.55361 46.9376 5.68909Z" fill="#D2987B"/>
<path d="M50.7231 26.1941C51.6096 24.1999 51.2194 22.2251 49.8514 21.7834C48.4834 21.3417 46.6558 22.6002 45.7692 24.5944C44.8826 26.5887 45.2729 28.5634 46.6409 29.0052C48.0088 29.4469 49.8365 28.1884 50.7231 26.1941Z" fill="#EDCEAE"/>
<path d="M12.9896 26.1937C13.8762 28.188 15.7038 29.4465 17.0718 29.0048C18.4398 28.563 18.83 26.5883 17.9435 24.594C17.0569 22.5998 15.2292 21.3413 13.8613 21.783C12.4933 22.2247 12.103 24.1995 12.9896 26.1937Z" fill="#F3DBC4"/>
</svg>
